<svg width="14" height="14" viewBox="0 0 14 14" fill="none" xmlns="http://www.w3.org/2000/svg">
<path fill-rule="evenodd" clip-rule="evenodd" d="M2.8 0H11.2C12.7464 0 14 1.2536 14 2.8V11.2C14 12.7464 12.7464 14 11.2 14H2.8C1.2536 14 0 12.7464 0 11.2V2.8C0 1.2536 1.2536 0 2.8 0ZM12.3929 12.3929C12.7093 12.0765 12.887 11.6474 12.887 11.2V2.8C12.887 2.35258 12.7093 1.92348 12.3929 1.60711C12.0765 1.29074 11.6474 1.113 11.2 1.113H2.8C1.8683 1.113 1.113 1.8683 1.113 2.8V11.2C1.113 11.6474 1.29074 12.0765 1.60711 12.3929C1.92349 12.7093 2.35258 12.887 2.8 12.887H11.2C11.6474 12.887 12.0765 12.7093 12.3929 12.3929Z" fill="#3657C0"/>
<path d="M9.8 6.475H7.525V4.2C7.525 3.91005 7.28995 3.675 7 3.675C6.71005 3.675 6.475 3.91005 6.475 4.2V6.475H4.2C3.91005 6.475 3.675 6.71005 3.675 7C3.675 7.28995 3.91005 7.525 4.2 7.525H6.475V9.8C6.475 10.0899 6.71005 10.325 7 10.325C7.28995 10.325 7.525 10.0899 7.525 9.8V7.525H9.8C10.0899 7.525 10.325 7.28995 10.325 7C10.325 6.71005 10.0899 6.475 9.8 6.475Z" fill="#3657C0"/>
</svg>
