<svg width="16" height="14" viewBox="0 0 16 14" fill="none" xmlns="http://www.w3.org/2000/svg">
<path fill-rule="evenodd" clip-rule="evenodd" d="M0.334736 13.4653C-0.111577 13.0189 -0.111577 12.2953 0.334737 11.849L6.04902 6.13472C6.49534 5.68841 7.21895 5.68841 7.66527 6.13473C8.11158 6.58104 8.11158 7.30466 7.66527 7.75097L1.95098 13.4653C1.50467 13.9116 0.78105 13.9116 0.334736 13.4653Z" fill="#2D263F"/>
<path fill-rule="evenodd" clip-rule="evenodd" d="M7.66526 7.86528C7.21895 8.31159 6.49533 8.31159 6.04902 7.86528L0.334737 2.15099C-0.111576 1.70468 -0.111576 0.981062 0.334737 0.534749C0.78105 0.0884355 1.50467 0.0884356 1.95098 0.534749L7.66527 6.24903C8.11158 6.69535 8.11158 7.41896 7.66526 7.86528Z" fill="#2D263F"/>
<path fill-rule="evenodd" clip-rule="evenodd" d="M8.33474 13.4653C7.88842 13.0189 7.88842 12.2953 8.33474 11.849L14.049 6.13472C14.4953 5.68841 15.219 5.68841 15.6653 6.13473C16.1116 6.58104 16.1116 7.30466 15.6653 7.75097L9.95098 13.4653C9.50467 13.9116 8.78105 13.9116 8.33474 13.4653Z" fill="#2D263F"/>
<path fill-rule="evenodd" clip-rule="evenodd" d="M15.6653 7.86528C15.219 8.31159 14.4953 8.31159 14.049 7.86528L8.33474 2.15099C7.88842 1.70468 7.88842 0.981062 8.33474 0.534749C8.78105 0.0884355 9.50467 0.0884356 9.95098 0.534749L15.6653 6.24903C16.1116 6.69535 16.1116 7.41896 15.6653 7.86528Z" fill="#2D263F"/>
</svg>
