<svg width="98" height="101" viewBox="0 0 98 101" fill="none" xmlns="http://www.w3.org/2000/svg">
<path fill-rule="evenodd" clip-rule="evenodd" d="M94.3194 70.219C92.0051 68.2395 90.6728 65.3465 90.673 62.3011V37.1932C90.673 16.6171 72.0243 0 49 0C25.9757 0 7.32699 16.6171 7.32699 37.1932V62.3011C7.32719 65.3465 5.99489 68.2395 3.6806 70.219C-4.18518 77.2513 1.38859 89.2323 12.5361 89.2323H32.3308C34.8564 96.2667 41.526 100.959 49 100.959C56.474 100.959 63.1436 96.2667 65.6692 89.2323H85.4639C96.6114 89.2323 102.185 77.2513 94.3194 70.219ZM49 93.1392C45.8995 93.1275 42.9778 91.6859 41.0821 89.2323H56.7095C54.8741 91.6471 52.0327 93.087 49 93.1392ZM85.516 81.4186C87.4098 81.5902 89.2129 80.5746 90.0479 78.8662C90.4534 77.837 90.0842 76.6645 89.1624 76.0532C85.2376 72.5522 82.9685 67.5602 82.9114 62.3012V37.1932C82.9114 20.9928 67.7008 7.81369 49.0521 7.81369C30.4034 7.81369 15.1928 20.9928 15.1928 37.1932V62.3012C15.1356 67.5602 12.8666 72.5522 8.94182 76.0532C8.00063 76.649 7.60869 77.8248 8.00418 78.8662C8.83918 80.5746 10.6423 81.5902 12.5361 81.4186H85.516Z" fill="#A7A7A7"/>
</svg>
