<svg width="24" height="25" viewBox="0 0 24 25" fill="none" xmlns="http://www.w3.org/2000/svg">
<path fill-rule="evenodd" clip-rule="evenodd" d="M0.815413 13.9472C0.815413 7.84297 5.81486 2.89448 11.982 2.89448C18.1491 2.89448 23.1486 7.84297 23.1486 13.9472C23.1486 20.0515 18.1491 25 11.982 25C5.81486 25 0.815413 20.0515 0.815413 13.9472ZM2.67651 13.9472C2.67651 19.0341 6.84272 23.1579 11.982 23.1579C14.45 23.1579 16.8169 22.1875 18.562 20.4601C20.3071 18.7328 21.2875 16.3901 21.2875 13.9472C21.2875 8.86035 17.1213 4.7366 11.982 4.7366C6.84272 4.7366 2.67651 8.86035 2.67651 13.9472Z" fill="white"/>
<path d="M9.06628 9.26824C8.69963 8.93007 8.12827 8.94005 7.77391 9.29081C7.41954 9.64156 7.40946 10.2071 7.7511 10.57L11.0514 13.8367V18.8596C11.0514 19.3683 11.4681 19.7806 11.982 19.7806C12.4959 19.7806 12.9125 19.3683 12.9125 18.8596V13.456C12.9123 13.2118 12.8141 12.9777 12.6396 12.8051L9.06628 9.26824Z" fill="white"/>
<path d="M23.8062 4.7366C22.2743 2.71456 20.2397 1.11952 17.9003 0.106724C17.672 0.0042829 17.4115 -0.00264389 17.178 0.0875123C16.9444 0.177668 16.7575 0.357281 16.6596 0.585677C16.5524 0.811208 16.5436 1.07039 16.635 1.30258C16.7265 1.53477 16.9103 1.71958 17.1434 1.81376C19.1869 2.70368 20.9644 4.09937 22.3049 5.86644C22.4806 6.09837 22.7564 6.23487 23.0493 6.23487C23.2508 6.23577 23.447 6.17103 23.6077 6.05065C23.8143 5.90563 23.9523 5.68348 23.9898 5.43549C24.0272 5.18751 23.9609 4.93512 23.8062 4.7366Z" fill="white"/>
<path d="M1.6467 5.84188C2.98717 4.07481 4.7647 2.67912 6.80815 1.7892C7.04126 1.69501 7.22506 1.5102 7.31655 1.27802C7.40803 1.04583 7.39917 0.786647 7.29203 0.561116C7.19407 0.332719 7.00714 0.153107 6.77359 0.0629506C6.54004 -0.0272056 6.27962 -0.0202788 6.0513 0.0821624C3.71355 1.10363 1.68308 2.70722 0.157825 4.7366C-0.110183 5.13204 -0.029493 5.66449 0.343935 5.96469C0.504581 6.08507 0.700775 6.1498 0.902264 6.1489C1.18465 6.16384 1.45858 6.05087 1.6467 5.84188Z" fill="white"/>
</svg>
