<svg width="15" height="16" viewBox="0 0 15 16" fill="none" xmlns="http://www.w3.org/2000/svg">
<path fill-rule="evenodd" clip-rule="evenodd" d="M0.573372 5.12436C1.73669 2.3221 4.47383 0.496824 7.50797 0.500004C9.49634 0.500003 11.4032 1.29042 12.8084 2.69715C14.2137 4.10388 15.0021 6.01152 15 7.99989C15 11.034 13.1719 13.7693 10.3684 14.9296C7.56489 16.09 4.33844 15.4469 2.1941 13.3003C0.0497714 11.1537 -0.589945 7.92662 0.573372 5.12436ZM13.3884 10.2797C13.6629 9.55117 13.8014 8.77844 13.7972 7.99989C13.8148 6.56807 13.3434 5.17309 12.4607 4.04555C12.107 4.63516 11.4387 5.51565 10.6133 5.51565C10.2957 5.49012 9.97611 5.52208 9.66988 5.60999V5.69647C9.66988 5.83798 10.0551 6.22319 10.2595 6.42759C10.7686 6.80718 11.1075 7.3721 11.2029 7.99989C11.2029 9.25774 11.3287 9.64295 11.4387 9.73729C12.1183 9.7859 12.7813 9.97036 13.3884 10.2797ZM1.21875 7.99989C1.2116 6.60137 1.67081 5.24035 2.52376 4.13203C2.74652 4.53829 3.17688 4.78681 3.6401 4.77667C4.27621 5.09741 4.83847 5.54722 5.29102 6.09741C4.95805 6.30214 4.65623 6.55366 4.39481 6.84425C4.37054 6.86762 4.34412 6.89334 4.31613 6.9206C4.09925 7.13179 3.78811 7.43476 3.65582 7.44173C3.29186 7.43072 2.93949 7.57047 2.68201 7.82796C2.42453 8.08544 2.28478 8.4378 2.29578 8.80177C2.29691 8.89188 2.31841 8.98057 2.35867 9.0612L3.06621 10.4763C3.07523 11.2902 3.20506 12.0983 3.45142 12.874C2.01731 11.6638 1.19854 9.87633 1.21875 7.99989ZM5.36177 13.9118C6.04976 14.1615 6.77606 14.2892 7.50797 14.2891V14.3127C9.67163 14.3272 11.6909 13.2285 12.8538 11.4039C12.3796 11.1743 11.8733 11.0179 11.3523 10.9401C9.99221 10.9401 9.99221 8.99045 9.99221 8.04706C9.99221 7.90459 9.64174 7.55469 9.42518 7.33849C9.4147 7.32803 9.40453 7.31788 9.39473 7.30808C8.88927 6.92649 8.55343 6.36206 8.45921 5.73578C8.45921 4.37573 9.84284 4.37573 10.5818 4.37573C10.7862 4.36787 11.2736 3.78612 11.5724 3.20437C9.24122 1.23102 5.82929 1.21776 3.48287 3.17292C3.49477 3.24053 3.49477 3.30971 3.48287 3.37732C3.49073 3.566 3.57721 3.566 3.66369 3.566C4.60707 3.566 6.72182 5.48421 6.75326 6.38042C6.75451 6.58252 6.66928 6.77551 6.51906 6.91071C6.36883 7.04591 6.16796 7.11042 5.96711 7.08796C5.8256 7.09582 5.44039 7.48103 5.23599 7.68543C4.85356 8.19133 4.29004 8.52944 3.66369 8.62881C3.60079 8.62881 3.50646 8.62881 3.50646 8.70743L4.19041 10.0203C4.23067 10.1009 4.25217 10.1896 4.2533 10.2797C4.2533 11.1366 4.44198 12.5281 4.85077 12.9448C5.136 13.1919 5.31831 13.5369 5.36177 13.9118Z" fill="#3657C0"/>
</svg>
