<svg width="14" height="14" viewBox="0 0 14 14" fill="none" xmlns="http://www.w3.org/2000/svg">
<path d="M8.47579 5.52417L5.52412 8.47583C5.14495 8.09667 4.91162 7.5775 4.91162 7C4.91162 5.845 5.84495 4.91167 6.99995 4.91167C7.57745 4.91167 8.09662 5.145 8.47579 5.52417Z" stroke="#141414" stroke-linecap="round" stroke-linejoin="round"/>
<path d="M10.395 3.36583C9.3742 2.59583 8.20753 2.17583 7.00003 2.17583C4.94086 2.17583 3.0217 3.38917 1.68586 5.48917C1.16086 6.31167 1.16086 7.69417 1.68586 8.51667C2.1467 9.24 2.68336 9.86417 3.2667 10.3658" stroke="#141414" stroke-linecap="round" stroke-linejoin="round"/>
<path d="M4.91162 11.3925C5.57662 11.6725 6.28245 11.8242 6.99995 11.8242C9.05912 11.8242 10.9783 10.6108 12.3141 8.51083C12.8391 7.68833 12.8391 6.30583 12.3141 5.48333C12.1216 5.18 11.9116 4.89416 11.6958 4.62583" stroke="#141414" stroke-linecap="round" stroke-linejoin="round"/>
<path d="M9.04747 7.40833C8.8958 8.23083 8.22497 8.90167 7.40247 9.05333" stroke="#141414" stroke-linecap="round" stroke-linejoin="round"/>
<path d="M5.52413 8.47583L1.16663 12.8333" stroke="#141414" stroke-linecap="round" stroke-linejoin="round"/>
<path d="M12.8333 1.16666L8.47583 5.52416" stroke="#141414" stroke-linecap="round" stroke-linejoin="round"/>
</svg>
