<svg width="17" height="17" viewBox="0 0 17 17" fill="none" xmlns="http://www.w3.org/2000/svg">
<path d="M8.66917 16.9801C3.99533 16.9801 0.210834 13.1859 0.210834 8.5C0.210834 3.81408 3.99533 0.019917 8.66917 0.019917C10.9529 0.019917 12.8621 0.862125 14.3266 2.22996L11.9413 4.62004V4.61521C11.0532 3.76696 9.92704 3.33196 8.66917 3.33196C5.87792 3.33196 3.60987 5.69546 3.60987 8.49517C3.60987 11.2925 5.87792 13.6632 8.66917 13.6632C11.2018 13.6632 12.9249 12.2108 13.2802 10.217H8.66917V6.90983H16.626C16.7324 7.47775 16.7892 8.06983 16.7892 8.69092C16.7892 13.5363 13.5545 16.9801 8.66917 16.9801Z" fill="white"/>
</svg>
