<svg width="20" height="20" viewBox="0 0 20 20" fill="none" xmlns="http://www.w3.org/2000/svg">
<path fill-rule="evenodd" clip-rule="evenodd" d="M12.7361 0.893424L18.294 5.00321C19.3651 5.77925 20.0024 7.02007 20.0098 8.34372V15.7835C19.9409 18.1691 17.9616 20.0518 15.5782 19.9986H4.45187C2.06443 20.0577 0.0785961 18.1733 0.00976562 15.7835V8.34372C0.0170915 7.02007 0.654418 5.77925 1.72556 5.00321L7.28345 0.893424C8.90624 -0.297808 11.1133 -0.297808 12.7361 0.893424ZM5.27295 15.5411H14.7466C15.1826 15.5411 15.5361 15.1873 15.5361 14.7508C15.5361 14.3143 15.1826 13.9604 14.7466 13.9604H5.27295C4.83693 13.9604 4.48347 14.3143 4.48347 14.7508C4.48347 15.1873 4.83693 15.5411 5.27295 15.5411Z" fill="white"/>
</svg>
