<svg width="13" height="14" viewBox="0 0 13 14" fill="none" xmlns="http://www.w3.org/2000/svg">
<path d="M8.63748 6.9352C9.10642 7.41776 9.86419 7.41776 10.3331 6.9352L12.6577 4.53086C12.7683 4.41405 12.8573 4.27731 12.9204 4.1274C12.9712 3.9821 12.9981 3.82902 13 3.67452C12.9989 3.51995 12.9719 3.36674 12.9204 3.22165C12.8594 3.07058 12.7701 2.93347 12.6577 2.81818L10.3331 0.364443C9.86709 -0.119869 9.1097 -0.121712 8.64146 0.360326C8.17322 0.842364 8.17143 1.62575 8.63748 2.11006L8.93203 2.41472H4.73668C2.11426 2.43732 -9.10581e-05 4.64262 2.94174e-09 7.35514V9.14192C0.00741196 11.7708 2.02899 13.9201 4.5695 14H10.9382C11.5976 14 12.1323 13.447 12.1323 12.7649C12.1323 12.0828 11.5976 11.5298 10.9382 11.5298C10.9382 11.5298 4.84813 11.5298 4.68096 11.5298C3.41331 11.4896 2.40722 10.4125 2.41212 9.10075V7.31397C2.41194 5.96563 3.45714 4.86623 4.76056 4.84376H8.95591L8.66136 5.14842C8.42423 5.37928 8.28781 5.69978 8.28331 6.03657C8.27881 6.37337 8.40661 6.69764 8.63748 6.9352Z" fill="#EE4747"/>
</svg>
