<svg width="19" height="19" viewBox="0 0 19 19" fill="none" xmlns="http://www.w3.org/2000/svg">
<path fill-rule="evenodd" clip-rule="evenodd" d="M1.58331 9.56353C1.58331 5.1563 5.15608 1.58353 9.56331 1.58353C10.1496 1.58058 10.7343 1.64702 11.305 1.78145C9.04623 2.42817 7.56793 4.59136 7.78601 6.93072C8.00409 9.27009 9.85675 11.1228 12.1961 11.3408C14.5355 11.5589 16.6987 10.0806 17.3454 7.82186C17.4798 8.39258 17.5463 8.9772 17.5433 9.56353C17.5433 13.9708 13.9705 17.5435 9.56331 17.5435C5.15608 17.5435 1.58331 13.9708 1.58331 9.56353ZM8.34649 10.7797C6.2763 8.71144 5.97576 5.46086 7.63165 3.04811C4.51496 3.97377 2.49126 6.97817 2.80467 10.2143C3.11808 13.4504 5.68071 16.0106 8.9171 16.321C12.1535 16.6314 15.156 14.6048 16.0787 11.4873C13.6675 13.1454 10.4167 12.8479 8.34649 10.7797Z" fill="black"/>
</svg>
