<svg width="16" height="16" viewBox="0 0 16 16" fill="none" xmlns="http://www.w3.org/2000/svg">
<path fill-rule="evenodd" clip-rule="evenodd" d="M5.47368 0C5.93877 0 6.31579 0.377023 6.31579 0.842105V3.78947C6.31579 5.18472 5.18472 6.31579 3.78947 6.31579H0.842105C0.377023 6.31579 0 5.93877 0 5.47368C0 5.0086 0.377023 4.63158 0.842105 4.63158H3.78947C4.25456 4.63158 4.63158 4.25456 4.63158 3.78947V0.842105C4.63158 0.377023 5.0086 0 5.47368 0ZM10.5263 0C10.9914 0 11.3684 0.377023 11.3684 0.842105V3.78947C11.3684 4.25456 11.7454 4.63158 12.2105 4.63158H15.1579C15.623 4.63158 16 5.0086 16 5.47368C16 5.93877 15.623 6.31579 15.1579 6.31579H12.2105C10.8153 6.31579 9.68421 5.18472 9.68421 3.78947V0.842105C9.68421 0.377023 10.0612 0 10.5263 0ZM0 10.5263C0 10.0612 0.377023 9.68421 0.842105 9.68421H3.78947C5.18472 9.68421 6.31579 10.8153 6.31579 12.2105V15.1579C6.31579 15.623 5.93877 16 5.47368 16C5.0086 16 4.63158 15.623 4.63158 15.1579V12.2105C4.63158 11.7454 4.25456 11.3684 3.78947 11.3684H0.842105C0.377023 11.3684 0 10.9914 0 10.5263ZM12.2105 11.3684C11.7454 11.3684 11.3684 11.7454 11.3684 12.2105V15.1579C11.3684 15.623 10.9914 16 10.5263 16C10.0612 16 9.68421 15.623 9.68421 15.1579V12.2105C9.68421 10.8153 10.8153 9.68421 12.2105 9.68421H15.1579C15.623 9.68421 16 10.0612 16 10.5263C16 10.9914 15.623 11.3684 15.1579 11.3684H12.2105Z" fill="#3657C0"/>
</svg>
