<svg width="16" height="20" viewBox="0 0 16 20" fill="none" xmlns="http://www.w3.org/2000/svg">
<path d="M12.7325 20H3.92998C2.97117 19.9632 2.07801 19.477 1.49444 18.6741C0.910876 17.8713 0.697871 16.8356 0.913603 15.85L1.14125 14.71C1.40309 13.1668 2.66142 12.0327 4.14815 12H12.5143C14.0011 12.0327 15.2594 13.1668 15.5212 14.71L15.7489 15.85C15.9646 16.8356 15.7516 17.8713 15.168 18.6741C14.5845 19.477 13.6913 19.9632 12.7325 20Z" fill="white"/>
<path d="M8.80551 10H7.85696C5.76149 10 4.06278 8.20915 4.06278 6.00001V3.36001C4.06025 2.46807 4.39522 1.61189 4.99347 0.981192C5.59172 0.350491 6.40384 -0.00265152 7.24989 1.49917e-05H9.41258C10.2586 -0.00265152 11.0708 0.350491 11.669 0.981192C12.2673 1.61189 12.6022 2.46807 12.5997 3.36001V6.00001C12.5997 7.06088 12.2 8.07829 11.4884 8.82844C10.7769 9.57858 9.81179 10 8.80551 10Z" fill="white"/>
</svg>
