<svg width="27" height="32" viewBox="0 0 27 32" fill="none" xmlns="http://www.w3.org/2000/svg">
<path d="M13.1484 0.921875C13.1484 1.11594 13.3059 1.27344 13.5 1.27344C13.6941 1.27344 13.8516 1.11594 13.8516 0.921875C13.8516 0.727813 13.6941 0.570312 13.5 0.570312C13.3059 0.570312 13.1484 0.727813 13.1484 0.921875Z" stroke="#A7A7A7" stroke-width="0.0527344" stroke-linecap="round" stroke-linejoin="round"/>
<path d="M13.3696 1.03369L13.4785 0.968648C13.4975 0.957398 13.513 0.930327 13.513 0.908179V0.764038" stroke="#A7A7A7" stroke-width="0.0527344" stroke-linecap="round" stroke-linejoin="round"/>
<path d="M15.2803 1.60519C15.2803 1.59798 15.2815 1.59157 15.2837 1.58596C15.2858 1.58036 15.2896 1.57523 15.295 1.57058C15.3004 1.56594 15.3081 1.56145 15.3181 1.55713C15.3278 1.55264 15.3403 1.54807 15.3556 1.54343C15.3722 1.5383 15.3876 1.53261 15.4017 1.52636C15.4156 1.51995 15.4278 1.51258 15.4382 1.50425C15.4487 1.49576 15.4567 1.48607 15.4625 1.47517C15.4683 1.46412 15.4712 1.45138 15.4712 1.43696C15.4712 1.4227 15.4682 1.40973 15.4623 1.39803C15.4562 1.38633 15.4476 1.37624 15.4366 1.36775C15.4253 1.3591 15.4121 1.35245 15.3969 1.3478C15.3817 1.34299 15.3649 1.34059 15.3464 1.34059C15.3205 1.34059 15.2981 1.3454 15.2794 1.35501C15.2605 1.36462 15.246 1.37752 15.2359 1.3937C15.2256 1.40989 15.2205 1.42775 15.2205 1.4473H15.2803C15.2803 1.43576 15.2828 1.42559 15.2878 1.41677C15.2926 1.4078 15.3 1.40075 15.3099 1.39563C15.3197 1.3905 15.3321 1.38794 15.3472 1.38794C15.3614 1.38794 15.3733 1.3901 15.3827 1.39442C15.3922 1.39875 15.3992 1.4046 15.4039 1.41197C15.4085 1.41934 15.4108 1.42767 15.4108 1.43696C15.4108 1.44353 15.4093 1.44954 15.4063 1.45499C15.4032 1.46027 15.3986 1.46524 15.3923 1.46989C15.3861 1.47437 15.3782 1.47862 15.3688 1.48262C15.3593 1.48663 15.3482 1.49047 15.3354 1.49416C15.316 1.49993 15.2991 1.50634 15.2847 1.51339C15.2702 1.52028 15.2582 1.52813 15.2486 1.53694C15.239 1.54575 15.2318 1.55576 15.227 1.56698C15.2222 1.57803 15.2198 1.59061 15.2198 1.60471C15.2198 1.61945 15.2227 1.63275 15.2287 1.6446C15.2346 1.6563 15.2431 1.66631 15.2541 1.67464C15.265 1.68282 15.2782 1.68914 15.2936 1.69363C15.3088 1.69796 15.3258 1.70012 15.3445 1.70012C15.3613 1.70012 15.3779 1.69788 15.3943 1.69339C15.4104 1.6889 15.4252 1.68209 15.4385 1.67296C15.4518 1.66367 15.4623 1.65213 15.4702 1.63836C15.4781 1.62442 15.482 1.60815 15.482 1.58957H15.4217C15.4217 1.60094 15.4197 1.61064 15.4159 1.61865C15.4119 1.62666 15.4064 1.63323 15.3993 1.63836C15.3923 1.64332 15.3841 1.64701 15.3748 1.64941C15.3653 1.65181 15.3552 1.65302 15.3445 1.65302C15.3304 1.65302 15.3186 1.65101 15.3092 1.64701C15.2996 1.643 15.2924 1.63739 15.2876 1.63018C15.2827 1.62297 15.2803 1.61464 15.2803 1.60519ZM15.066 1.65398C15.0565 1.65398 15.048 1.65213 15.0405 1.64845C15.0328 1.6446 15.0266 1.63932 15.022 1.63259C15.0172 1.62586 15.0145 1.61809 15.0141 1.60928H14.9595C14.9598 1.6261 14.9648 1.6414 14.9744 1.65518C14.984 1.66896 14.9968 1.67993 15.0126 1.6881C15.0285 1.69611 15.046 1.70012 15.0653 1.70012C15.0851 1.70012 15.1024 1.69675 15.1172 1.69003C15.1319 1.68314 15.1442 1.67368 15.1539 1.66167C15.1637 1.64965 15.1711 1.63579 15.176 1.62009C15.1808 1.60439 15.1833 1.58757 15.1833 1.56962V1.56121C15.1833 1.54327 15.1808 1.52644 15.176 1.51074C15.1711 1.49488 15.1637 1.48094 15.1539 1.46893C15.1442 1.45691 15.1319 1.44754 15.1172 1.44081C15.1024 1.43392 15.0852 1.43047 15.0655 1.43047C15.0447 1.43047 15.0264 1.43464 15.0107 1.44297C14.995 1.45114 14.9827 1.4626 14.9737 1.47734C14.9646 1.49192 14.9598 1.5089 14.9595 1.52829H15.0141C15.0145 1.51867 15.0169 1.51002 15.0213 1.50233C15.0254 1.49448 15.0314 1.48823 15.0391 1.48359C15.0466 1.47894 15.0556 1.47662 15.0662 1.47662C15.0779 1.47662 15.0876 1.47902 15.0953 1.48383C15.103 1.48847 15.109 1.49488 15.1133 1.50305C15.1176 1.51106 15.1208 1.52011 15.1227 1.53021C15.1245 1.54014 15.1253 1.55048 15.1253 1.56121V1.56962C15.1253 1.58036 15.1245 1.59077 15.1227 1.60086C15.1209 1.61096 15.1179 1.62001 15.1136 1.62802C15.1091 1.63587 15.103 1.6422 15.0953 1.64701C15.0876 1.65165 15.0778 1.65398 15.066 1.65398ZM14.8578 1.32617V1.69531H14.9155V1.32617H14.8578ZM14.8679 1.55568L14.8867 1.55544C14.8865 1.5375 14.884 1.52092 14.8792 1.5057C14.8743 1.49047 14.8674 1.47726 14.8586 1.46604C14.8496 1.45467 14.8389 1.44593 14.8264 1.43985C14.8139 1.4336 14.8 1.43047 14.7848 1.43047C14.772 1.43047 14.7604 1.43224 14.7502 1.43576C14.7398 1.43929 14.7308 1.44497 14.7233 1.45282C14.7157 1.46051 14.71 1.47061 14.7062 1.4831C14.7022 1.49544 14.7002 1.5105 14.7002 1.52829V1.69531H14.7584V1.52781C14.7584 1.51531 14.7602 1.50537 14.7639 1.498C14.7674 1.49063 14.7726 1.48535 14.7795 1.48214C14.7864 1.47878 14.7948 1.4771 14.8047 1.4771C14.8152 1.4771 14.8244 1.47918 14.8324 1.48334C14.8402 1.48751 14.8468 1.4932 14.8521 1.50041C14.8574 1.50762 14.8614 1.51595 14.8641 1.5254C14.8667 1.53485 14.8679 1.54495 14.8679 1.55568ZM14.5269 1.70012C14.5461 1.70012 14.5635 1.69699 14.5791 1.69075C14.5945 1.68434 14.6076 1.67545 14.6185 1.66407C14.6292 1.65269 14.6375 1.63932 14.6432 1.62394C14.649 1.60855 14.6519 1.59197 14.6519 1.57419V1.56458C14.6519 1.54423 14.6489 1.5258 14.643 1.5093C14.6371 1.4928 14.6288 1.4787 14.6182 1.467C14.6077 1.45515 14.5952 1.44609 14.5808 1.43985C14.5663 1.4336 14.5507 1.43047 14.5339 1.43047C14.5153 1.43047 14.499 1.4336 14.4851 1.43985C14.4712 1.44609 14.4596 1.45491 14.4505 1.46628C14.4412 1.4775 14.4343 1.49088 14.4298 1.50642C14.4252 1.52196 14.4229 1.5391 14.4229 1.55785V1.5826H14.6238V1.54102H14.4801V1.53646C14.4804 1.52604 14.4825 1.51627 14.4863 1.50714C14.49 1.498 14.4957 1.49063 14.5034 1.48503C14.5111 1.47942 14.5213 1.47662 14.5341 1.47662C14.5437 1.47662 14.5523 1.4787 14.5598 1.48286C14.5672 1.48687 14.5734 1.49272 14.5783 1.50041C14.5833 1.5081 14.5872 1.51739 14.5899 1.52829C14.5924 1.53902 14.5937 1.55112 14.5937 1.56458V1.57419C14.5937 1.58556 14.5922 1.59614 14.5892 1.60591C14.586 1.61552 14.5813 1.62394 14.5752 1.63115C14.5691 1.63836 14.5618 1.64404 14.5531 1.64821C14.5445 1.65221 14.5346 1.65422 14.5236 1.65422C14.5096 1.65422 14.4972 1.65141 14.4863 1.64581C14.4754 1.6402 14.466 1.63227 14.4579 1.62201L14.4274 1.65157C14.433 1.65974 14.4403 1.66759 14.4493 1.67513C14.4583 1.6825 14.4692 1.6885 14.4822 1.69315C14.495 1.6978 14.5099 1.70012 14.5269 1.70012ZM14.2191 1.64148V1.32617H14.1609V1.69531H14.2135L14.2191 1.64148ZM14.3883 1.56818V1.56313C14.3883 1.54343 14.3859 1.52548 14.3813 1.5093C14.3766 1.49296 14.3699 1.47894 14.3611 1.46724C14.3523 1.45539 14.3415 1.44633 14.3289 1.44009C14.3162 1.43368 14.302 1.43047 14.2861 1.43047C14.2704 1.43047 14.2566 1.43352 14.2448 1.43961C14.2329 1.44569 14.2228 1.45443 14.2145 1.4658C14.2062 1.47702 14.1995 1.49047 14.1945 1.50618C14.1896 1.52172 14.1861 1.53902 14.184 1.55809V1.57419C14.1861 1.59277 14.1896 1.60976 14.1945 1.62514C14.1995 1.64052 14.2062 1.65382 14.2145 1.66503C14.2228 1.67625 14.233 1.6849 14.245 1.69099C14.2569 1.69707 14.2707 1.70012 14.2866 1.70012C14.3023 1.70012 14.3165 1.69683 14.3291 1.69027C14.3416 1.6837 14.3523 1.67448 14.3611 1.66263C14.3699 1.65077 14.3766 1.63683 14.3813 1.62081C14.3859 1.60463 14.3883 1.58709 14.3883 1.56818ZM14.3303 1.56313V1.56818C14.3303 1.58004 14.3293 1.59109 14.3272 1.60135C14.325 1.6116 14.3215 1.62065 14.3169 1.6285C14.3122 1.63619 14.3062 1.64228 14.2989 1.64677C14.2913 1.65109 14.2823 1.65326 14.2719 1.65326C14.2588 1.65326 14.248 1.65037 14.2395 1.6446C14.231 1.63884 14.2243 1.63107 14.2195 1.62129C14.2146 1.61136 14.2112 1.6003 14.2094 1.58813V1.54463C14.2104 1.53518 14.2124 1.52636 14.2155 1.51819C14.2183 1.51002 14.2223 1.50289 14.2272 1.4968C14.2322 1.49055 14.2384 1.48575 14.2457 1.48238C14.2529 1.47886 14.2615 1.4771 14.2715 1.4771C14.282 1.4771 14.291 1.47934 14.2984 1.48383C14.3057 1.48831 14.3118 1.49448 14.3166 1.50233C14.3213 1.51018 14.3247 1.51931 14.327 1.52973C14.3292 1.54014 14.3303 1.55128 14.3303 1.56313ZM13.9439 1.63403V1.43528H13.8857V1.69531H13.9405L13.9439 1.63403ZM13.9357 1.57996L13.9163 1.57948C13.9163 1.59694 13.9182 1.61304 13.922 1.62778C13.9259 1.64236 13.9318 1.6551 13.9398 1.66599C13.9478 1.67673 13.9581 1.68514 13.9706 1.69123C13.9831 1.69715 13.998 1.70012 14.0155 1.70012C14.0282 1.70012 14.0398 1.69828 14.0504 1.69459C14.0609 1.69091 14.0701 1.68522 14.0778 1.67753C14.0853 1.66984 14.0911 1.65982 14.0953 1.64749C14.0995 1.63515 14.1015 1.62041 14.1015 1.60327V1.43528H14.0436V1.60375C14.0436 1.6132 14.0425 1.62113 14.0403 1.62754C14.038 1.63379 14.035 1.63884 14.0311 1.64268C14.0273 1.64653 14.0228 1.64925 14.0177 1.65085C14.0125 1.65245 14.0071 1.65326 14.0013 1.65326C13.9848 1.65326 13.9718 1.65005 13.9624 1.64364C13.9528 1.63707 13.946 1.62826 13.942 1.61721C13.9378 1.60615 13.9357 1.59373 13.9357 1.57996ZM13.7644 1.32617V1.69531H13.8225V1.32617H13.7644ZM13.5863 1.70012C13.6055 1.70012 13.6229 1.69699 13.6384 1.69075C13.6538 1.68434 13.667 1.67545 13.6778 1.66407C13.6886 1.65269 13.6968 1.63932 13.7026 1.62394C13.7084 1.60855 13.7113 1.59197 13.7113 1.57419V1.56458C13.7113 1.54423 13.7083 1.5258 13.7024 1.5093C13.6964 1.4928 13.6882 1.4787 13.6776 1.467C13.667 1.45515 13.6545 1.44609 13.6401 1.43985C13.6257 1.4336 13.6101 1.43047 13.5933 1.43047C13.5747 1.43047 13.5584 1.4336 13.5445 1.43985C13.5305 1.44609 13.519 1.45491 13.5099 1.46628C13.5006 1.4775 13.4937 1.49088 13.4892 1.50642C13.4845 1.52196 13.4822 1.5391 13.4822 1.55785V1.5826H13.6831V1.54102H13.5394V1.53646C13.5397 1.52604 13.5418 1.51627 13.5457 1.50714C13.5494 1.498 13.555 1.49063 13.5627 1.48503C13.5704 1.47942 13.5807 1.47662 13.5935 1.47662C13.6031 1.47662 13.6117 1.4787 13.6192 1.48286C13.6266 1.48687 13.6327 1.49272 13.6377 1.50041C13.6427 1.5081 13.6465 1.51739 13.6492 1.52829C13.6518 1.53902 13.6531 1.55112 13.6531 1.56458V1.57419C13.6531 1.58556 13.6516 1.59614 13.6485 1.60591C13.6453 1.61552 13.6407 1.62394 13.6346 1.63115C13.6285 1.63836 13.6211 1.64404 13.6125 1.64821C13.6038 1.65221 13.594 1.65422 13.5829 1.65422C13.569 1.65422 13.5566 1.65141 13.5457 1.64581C13.5348 1.6402 13.5253 1.63227 13.5173 1.62201L13.4868 1.65157C13.4924 1.65974 13.4997 1.66759 13.5087 1.67513C13.5176 1.6825 13.5286 1.6885 13.5416 1.69315C13.5544 1.6978 13.5693 1.70012 13.5863 1.70012ZM13.1559 1.64148V1.32617H13.0977V1.69531H13.1503L13.1559 1.64148ZM13.325 1.56818V1.56313C13.325 1.54343 13.3227 1.52548 13.3181 1.5093C13.3134 1.49296 13.3067 1.47894 13.2979 1.46724C13.2891 1.45539 13.2783 1.44633 13.2657 1.44009C13.253 1.43368 13.2388 1.43047 13.2229 1.43047C13.2072 1.43047 13.1934 1.43352 13.1816 1.43961C13.1697 1.44569 13.1596 1.45443 13.1513 1.4658C13.143 1.47702 13.1363 1.49047 13.1313 1.50618C13.1264 1.52172 13.1229 1.53902 13.1208 1.55809V1.57419C13.1229 1.59277 13.1264 1.60976 13.1313 1.62514C13.1363 1.64052 13.143 1.65382 13.1513 1.66503C13.1596 1.67625 13.1698 1.6849 13.1818 1.69099C13.1937 1.69707 13.2075 1.70012 13.2234 1.70012C13.2391 1.70012 13.2533 1.69683 13.2659 1.69027C13.2784 1.6837 13.2891 1.67448 13.2979 1.66263C13.3067 1.65077 13.3134 1.63683 13.3181 1.62081C13.3227 1.60463 13.325 1.58709 13.325 1.56818ZM13.2671 1.56313V1.56818C13.2671 1.58004 13.2661 1.59109 13.264 1.60135C13.2618 1.6116 13.2583 1.62065 13.2537 1.6285C13.249 1.63619 13.243 1.64228 13.2356 1.64677C13.2281 1.65109 13.2191 1.65326 13.2087 1.65326C13.1956 1.65326 13.1848 1.65037 13.1763 1.6446C13.1678 1.63884 13.1611 1.63107 13.1563 1.62129C13.1514 1.61136 13.148 1.6003 13.1462 1.58813V1.54463C13.1472 1.53518 13.1492 1.52636 13.1523 1.51819C13.1551 1.51002 13.1591 1.50289 13.164 1.4968C13.169 1.49055 13.1752 1.48575 13.1825 1.48238C13.1897 1.47886 13.1983 1.4771 13.2083 1.4771C13.2188 1.4771 13.2278 1.47934 13.2352 1.48383C13.2425 1.48831 13.2486 1.49448 13.2534 1.50233C13.2581 1.51018 13.2615 1.51931 13.2638 1.52973C13.266 1.54014 13.2671 1.55128 13.2671 1.56313ZM12.9225 1.70012C12.9417 1.70012 12.9591 1.69699 12.9747 1.69075C12.99 1.68434 13.0032 1.67545 13.0141 1.66407C13.0248 1.65269 13.0331 1.63932 13.0388 1.62394C13.0446 1.60855 13.0475 1.59197 13.0475 1.57419V1.56458C13.0475 1.54423 13.0445 1.5258 13.0386 1.5093C13.0327 1.4928 13.0244 1.4787 13.0138 1.467C13.0033 1.45515 12.9908 1.44609 12.9763 1.43985C12.9619 1.4336 12.9463 1.43047 12.9295 1.43047C12.9109 1.43047 12.8946 1.4336 12.8807 1.43985C12.8667 1.44609 12.8552 1.45491 12.8461 1.46628C12.8368 1.4775 12.8299 1.49088 12.8254 1.50642C12.8208 1.52196 12.8184 1.5391 12.8184 1.55785V1.5826H13.0194V1.54102H12.8756V1.53646C12.876 1.52604 12.878 1.51627 12.8819 1.50714C12.8856 1.498 12.8913 1.49063 12.899 1.48503C12.9066 1.47942 12.9169 1.47662 12.9297 1.47662C12.9393 1.47662 12.9479 1.4787 12.9554 1.48286C12.9628 1.48687 12.969 1.49272 12.9739 1.50041C12.9789 1.5081 12.9827 1.51739 12.9855 1.52829C12.988 1.53902 12.9893 1.55112 12.9893 1.56458V1.57419C12.9893 1.58556 12.9878 1.59614 12.9847 1.60591C12.9815 1.61552 12.9769 1.62394 12.9708 1.63115C12.9647 1.63836 12.9574 1.64404 12.9487 1.64821C12.94 1.65221 12.9302 1.65422 12.9191 1.65422C12.9052 1.65422 12.8928 1.65141 12.8819 1.64581C12.871 1.6402 12.8615 1.63227 12.8535 1.62201L12.823 1.65157C12.8286 1.65974 12.8359 1.66759 12.8449 1.67513C12.8539 1.6825 12.8648 1.6885 12.8778 1.69315C12.8906 1.6978 12.9055 1.70012 12.9225 1.70012ZM12.7113 1.32617V1.69531H12.7694V1.32617H12.7113ZM12.5858 1.43528V1.69531H12.644V1.43528H12.5858ZM12.6478 1.36703C12.6478 1.35822 12.6449 1.35093 12.6392 1.34516C12.6332 1.33923 12.6251 1.33627 12.6146 1.33627C12.6044 1.33627 12.5963 1.33923 12.5904 1.34516C12.5844 1.35093 12.5815 1.35822 12.5815 1.36703C12.5815 1.37568 12.5844 1.38289 12.5904 1.38866C12.5963 1.39442 12.6044 1.39731 12.6146 1.39731C12.6251 1.39731 12.6332 1.39442 12.6392 1.38866C12.6449 1.38289 12.6478 1.37568 12.6478 1.36703ZM12.4378 1.64941L12.3741 1.43528H12.314L12.4044 1.69531H12.4419L12.4378 1.64941ZM12.4866 1.43528L12.4217 1.65037L12.4185 1.69531H12.456L12.5469 1.43528H12.4866ZM12.1669 1.70012C12.1861 1.70012 12.2035 1.69699 12.2191 1.69075C12.2344 1.68434 12.2476 1.67545 12.2585 1.66407C12.2692 1.65269 12.2775 1.63932 12.2832 1.62394C12.289 1.60855 12.2919 1.59197 12.2919 1.57419V1.56458C12.2919 1.54423 12.2889 1.5258 12.283 1.5093C12.2771 1.4928 12.2688 1.4787 12.2582 1.467C12.2477 1.45515 12.2352 1.44609 12.2208 1.43985C12.2063 1.4336 12.1907 1.43047 12.1739 1.43047C12.1553 1.43047 12.139 1.4336 12.1251 1.43985C12.1112 1.44609 12.0996 1.45491 12.0905 1.46628C12.0812 1.4775 12.0743 1.49088 12.0698 1.50642C12.0652 1.52196 12.0629 1.5391 12.0629 1.55785V1.5826H12.2638V1.54102H12.1201V1.53646C12.1204 1.52604 12.1225 1.51627 12.1263 1.50714C12.13 1.498 12.1357 1.49063 12.1434 1.48503C12.1511 1.47942 12.1613 1.47662 12.1741 1.47662C12.1837 1.47662 12.1923 1.4787 12.1998 1.48286C12.2072 1.48687 12.2134 1.49272 12.2183 1.50041C12.2233 1.5081 12.2272 1.51739 12.2299 1.52829C12.2324 1.53902 12.2337 1.55112 12.2337 1.56458V1.57419C12.2337 1.58556 12.2322 1.59614 12.2292 1.60591C12.226 1.61552 12.2213 1.62394 12.2152 1.63115C12.2091 1.63836 12.2018 1.64404 12.1931 1.64821C12.1845 1.65221 12.1746 1.65422 12.1636 1.65422C12.1496 1.65422 12.1372 1.65141 12.1263 1.64581C12.1154 1.6402 12.106 1.63227 12.0979 1.62201L12.0674 1.65157C12.073 1.65974 12.0803 1.66759 12.0893 1.67513C12.0983 1.6825 12.1092 1.6885 12.1222 1.69315C12.135 1.6978 12.1499 1.70012 12.1669 1.70012ZM11.9595 1.48479V1.69531H12.0174V1.43528H11.9622L11.9595 1.48479ZM11.88 1.4336L11.8804 1.48743C11.884 1.48679 11.8878 1.48631 11.892 1.48599C11.896 1.48567 11.9 1.48551 11.904 1.48551C11.9139 1.48551 11.9227 1.48695 11.9302 1.48983C11.9377 1.49256 11.9441 1.49656 11.9492 1.50185C11.9541 1.50698 11.958 1.51323 11.9607 1.5206C11.9634 1.52797 11.965 1.53622 11.9655 1.54535L11.9787 1.54631C11.9787 1.52997 11.9771 1.51483 11.9739 1.50089C11.9707 1.48695 11.9659 1.47469 11.9595 1.46412C11.9529 1.45354 11.9448 1.44529 11.935 1.43937C11.9251 1.43344 11.9136 1.43047 11.9006 1.43047C11.8971 1.43047 11.8933 1.43079 11.8893 1.43143C11.8852 1.43208 11.8821 1.4328 11.88 1.4336ZM11.7639 1.66695L11.6932 1.43528H11.6312L11.7355 1.73497C11.7379 1.74137 11.7411 1.74834 11.7449 1.75587C11.7488 1.7634 11.7538 1.77053 11.76 1.77726C11.7661 1.78415 11.7737 1.78968 11.7829 1.79385C11.792 1.79817 11.8031 1.80033 11.816 1.80033C11.8212 1.80033 11.8261 1.79985 11.8309 1.79889C11.8356 1.79809 11.84 1.79721 11.8442 1.79625L11.8444 1.75203C11.8428 1.75219 11.8409 1.75235 11.8386 1.75251C11.8362 1.75267 11.8343 1.75275 11.8329 1.75275C11.8233 1.75275 11.8152 1.75155 11.8088 1.74915C11.8024 1.7469 11.7972 1.74322 11.7932 1.73809C11.789 1.73296 11.7855 1.72607 11.7826 1.71742L11.7639 1.66695ZM11.8038 1.43528L11.742 1.62994L11.7317 1.69099L11.7718 1.70132L11.8663 1.43528H11.8038Z" fill="#A7A7A7"/>
<path fill-rule="evenodd" clip-rule="evenodd" d="M3.81928 18.6471H8.20482C8.95254 18.6471 9.66963 18.9538 10.1983 19.4999C10.7271 20.046 11.0241 20.7866 11.0241 21.5588V26.0882C11.0241 26.8605 10.7271 27.6011 10.1983 28.1472C9.66963 28.6932 8.95254 29 8.20482 29H3.81928C2.26223 29 1 27.6964 1 26.0882V21.5588C1 19.9507 2.26223 18.6471 3.81928 18.6471ZM8.20482 27.0588C8.72383 27.0588 9.14458 26.6243 9.14458 26.0882V21.5588C9.14458 21.0228 8.72383 20.5882 8.20482 20.5882H3.81928C3.30308 20.5952 2.88627 21.0257 2.87952 21.5588V26.0882C2.88627 26.6214 3.30308 27.0519 3.81928 27.0588H8.20482Z" fill="#A7A7A7"/>
<path d="M16.0361 20.2647C15.5171 20.2647 15.0964 20.6993 15.0964 21.2353C15.0964 21.7713 15.5171 22.2059 16.0361 22.2059H22.3012C22.8202 22.2059 23.241 21.7713 23.241 21.2353C23.241 20.6993 22.8202 20.2647 22.3012 20.2647H16.0361Z" fill="#A7A7A7"/>
<path d="M26.0602 25.4412H16.0361C15.5171 25.4412 15.0964 25.8757 15.0964 26.4118C15.0964 26.9478 15.5171 27.3824 16.0361 27.3824H26.0602C26.5793 27.3824 27 26.9478 27 26.4118C27 25.8757 26.5793 25.4412 26.0602 25.4412Z" fill="#A7A7A7"/>
<path fill-rule="evenodd" clip-rule="evenodd" d="M23.5542 16.0588H3.50602C2.12199 16.0588 1 14.9 1 13.4706V9.58824C1 8.15879 2.12199 7 3.50602 7H23.5542C24.9383 7 26.0602 8.15879 26.0602 9.58824V13.4706C26.0602 14.9 24.9383 16.0588 23.5542 16.0588ZM3.50602 8.94118C3.16001 8.94118 2.87952 9.23087 2.87952 9.58824V13.4706C2.87952 13.8279 3.16001 14.1176 3.50602 14.1176H23.5542C23.9002 14.1176 24.1807 13.8279 24.1807 13.4706V9.58824C24.1807 9.23087 23.9002 8.94118 23.5542 8.94118H3.50602Z" fill="#A7A7A7"/>
</svg>
