<svg width="16" height="22" viewBox="0 0 16 22" fill="none" xmlns="http://www.w3.org/2000/svg">
<path d="M8.05 9.49503H4.93C4.51579 9.49503 4.18 9.15924 4.18 8.74503C4.18 8.33082 4.51579 7.99503 4.93 7.99503H8.05C8.46421 7.99503 8.8 8.33082 8.8 8.74503C8.8 9.15924 8.46421 9.49503 8.05 9.49503Z" fill="black"/>
<path d="M4.93 11.105H11.07C11.4842 11.105 11.82 11.4408 11.82 11.855C11.82 12.2692 11.4842 12.605 11.07 12.605H4.93C4.51579 12.605 4.18 12.2692 4.18 11.855C4.18 11.4408 4.51579 11.105 4.93 11.105Z" fill="black"/>
<path d="M10.23 14.035H4.93C4.51579 14.035 4.18 14.3708 4.18 14.785C4.18 15.1992 4.51579 15.535 4.93 15.535H10.23C10.6442 15.535 10.98 15.1992 10.98 14.785C10.98 14.3708 10.6442 14.035 10.23 14.035Z" fill="black"/>
<path fill-rule="evenodd" clip-rule="evenodd" d="M10.27 0.535028C11.0792 0.533909 11.7474 1.16695 11.79 1.97503C14.1649 2.24206 15.9696 4.23534 16 6.62503V16.715C15.9945 19.3361 13.8711 21.4595 11.25 21.465H4.75C2.12893 21.4595 0.00550069 19.3361 0 16.715V6.62503C0.0304126 4.23534 1.83508 2.24206 4.21 1.97503C4.25747 1.16922 4.9228 0.53891 5.73 0.535028H10.27ZM10.29 1.97503H5.73V3.16503H10.29V1.97503ZM14.5 16.715C14.5 18.5116 13.0465 19.9695 11.25 19.975H4.75C2.95345 19.9695 1.49999 18.5116 1.5 16.715V6.62503C1.50398 5.0339 2.65936 3.67961 4.23 3.42503C4.35276 4.15639 4.98843 4.69035 5.73 4.68503H10.27C11.0116 4.69035 11.6472 4.15639 11.77 3.42503C13.3406 3.67961 14.496 5.0339 14.5 6.62503V16.715Z" fill="black"/>
</svg>
