<svg width="24" height="20" viewBox="0 0 24 20" fill="none" xmlns="http://www.w3.org/2000/svg">
<path fill-rule="evenodd" clip-rule="evenodd" d="M14.8128 16.1279C15.2015 15.0692 16.1317 14.3743 17.1673 14.369V14.3183C17.8464 14.3149 18.4988 14.6101 18.98 15.1384C19.4613 15.6668 19.7318 16.3848 19.7318 17.1338C19.7505 18.2757 19.1417 19.317 18.1907 19.7695C17.2398 20.222 16.1352 19.9962 15.3946 19.1977C14.654 18.3993 14.4242 17.1866 14.8128 16.1279ZM17.9953 17.1845C17.9953 16.6802 17.6246 16.2714 17.1673 16.2714C16.7126 16.2782 16.3455 16.683 16.3393 17.1845C16.3393 17.6888 16.7101 18.0976 17.1673 18.0976C17.6246 18.0976 17.9953 17.6888 17.9953 17.1845Z" fill="white"/>
<path fill-rule="evenodd" clip-rule="evenodd" d="M2.86134 17.1338C2.86134 15.5788 4.00436 14.3183 5.41434 14.3183C6.09238 14.3149 6.74353 14.6104 7.22298 15.1392C7.70243 15.6679 7.97042 16.386 7.96734 17.1338C7.96734 18.6887 6.82432 19.9492 5.41434 19.9492C4.00436 19.9492 2.86134 18.6887 2.86134 17.1338ZM6.18272 16.8478C6.05773 16.5003 5.75331 16.2719 5.41434 16.2714V16.2206C4.95705 16.2206 4.58634 16.6294 4.58634 17.1338C4.56751 17.507 4.75687 17.8552 5.06431 18.0127C5.37174 18.1701 5.73515 18.105 5.98159 17.8483C6.22802 17.5917 6.30771 17.1953 6.18272 16.8478Z" fill="white"/>
<path fill-rule="evenodd" clip-rule="evenodd" d="M22.8828 6.3031L21.6753 4.97146C21.2602 4.5103 20.7003 4.24247 20.1113 4.22321H14.6143V2.53646C14.6143 1.13561 13.5846 0 12.3143 0H2.86134C1.59109 0 0.56134 1.13561 0.56134 2.53646V5.23779H9.76134C9.9962 5.2344 10.2226 5.33405 10.3909 5.51482C10.5591 5.69558 10.6553 5.94264 10.6583 6.20164C10.6523 6.4573 10.5544 6.69984 10.3862 6.87586C10.2179 7.05188 9.99316 7.14695 9.76134 7.14013H0.56134V17.4635H2.01034C2.00435 17.3706 2.00435 17.2774 2.01034 17.1845C1.81119 15.7126 2.40854 14.2477 3.53922 13.4353C4.6699 12.6228 6.12631 12.612 7.26681 13.4076C8.40731 14.2032 9.0225 15.659 8.84134 17.1338C8.84733 17.2267 8.84733 17.3199 8.84134 17.4128H13.7748C13.7689 17.3199 13.7689 17.2267 13.7748 17.1338C13.7748 15.7745 14.4324 14.5185 15.4998 13.8388C16.5673 13.1592 17.8824 13.1592 18.9498 13.8388C20.0173 14.5185 20.6748 15.7745 20.6748 17.1338C20.6808 17.2267 20.6808 17.3199 20.6748 17.4128H21.2613C22.5316 17.4128 23.5613 16.2772 23.5613 14.8763V8.09131C23.5588 7.41968 23.3148 6.7766 22.8828 6.3031ZM9.76134 10.9448H4.01134C3.53945 10.9449 3.15513 10.5267 3.14884 10.0063C3.1488 9.47892 3.53314 9.04942 4.01134 9.04248H9.76134C10.2395 9.04942 10.6239 9.47892 10.6238 10.0063C10.6175 10.5267 10.2332 10.9449 9.76134 10.9448ZM16.0058 9.52441H21.7558C22.2322 9.52441 22.6183 9.09855 22.6183 8.57323C22.6183 8.04792 22.2322 7.62206 21.7558 7.62206H16.0058C15.5295 7.62206 15.1433 8.04792 15.1433 8.57323C15.1433 9.09855 15.5295 9.52441 16.0058 9.52441Z" fill="white"/>
</svg>
