<svg width="20" height="18" viewBox="0 0 20 18" fill="none" xmlns="http://www.w3.org/2000/svg">
<path fill-rule="evenodd" clip-rule="evenodd" d="M20 12.6364C20 15.1467 17.9649 17.1818 15.4545 17.1818H4.54545C2.03507 17.1818 0 15.1467 0 12.6364V5.36363C0 2.85325 2.03507 0.818176 4.54545 0.818176H15.4545C17.9649 0.818176 20 2.85325 20 5.36363V12.6364ZM4.54545 2.44545H15.4545C17.0662 2.44545 18.3727 3.75196 18.3727 5.36363V6.27272H15.4545C13.9483 6.27272 12.7273 7.49376 12.7273 8.99999C12.7273 10.5062 13.9483 11.7273 15.4545 11.7273H18.3727V12.6364C18.3727 14.248 17.0662 15.5545 15.4545 15.5545H4.54545C2.93379 15.5545 1.62727 14.248 1.62727 12.6364V5.36363C1.62727 3.75196 2.93379 2.44545 4.54545 2.44545ZM18.3727 10.1V7.89999H15.4545C14.847 7.89999 14.3545 8.39248 14.3545 8.99999C14.3545 9.60751 14.847 10.1 15.4545 10.1H18.3727Z" fill="black"/>
</svg>
